<svg width="1000" height="1000" viewBox="0 0 1000 1000" fill="none" xmlns="http://www.w3.org/2000/svg">
<g clip-path="url(#clip0_427_6964)">
<path fill-rule="evenodd" clip-rule="evenodd" d="M0 0H1000V722.222H791.667V777.778H736.111V722.222H527.778V777.778H472.222V722.222H263.889V777.778H208.333V722.222H0V0ZM208.333 777.778V1000H0V777.778H208.333ZM263.889 777.778V1000H472.222V777.778H263.889ZM527.778 777.778H736.111V1000H527.778V777.778ZM791.667 777.778V1000H1000V777.778H791.667ZM833.333 55.5556H888.889V111.111H833.333V55.5556ZM888.889 166.667H833.333V111.111H777.778V55.5556H222.222V111.111H166.667V55.5556H111.111V111.111H55.5556V166.667H111.111V222.222H55.5556V500H111.111V555.556H55.5556V611.111H111.111V666.667H166.667V611.111H222.222V666.667H777.778V611.111H833.333V666.667H888.889V611.111H944.444V555.556H888.889V500H944.444V222.222H888.889V166.667ZM888.889 166.667H944.444V111.111H888.889V166.667ZM888.889 555.556H833.333V611.111H888.889V555.556ZM166.667 611.111V555.556H111.111V611.111H166.667ZM111.111 166.667H166.667V111.111H111.111V166.667Z" fill="url(#paint0_linear_427_6964)"/>
<path d="M1000 488.889H944.444V722.222H1000V488.889Z" fill="url(#paint1_linear_427_6964)" fill-opacity="0.5"/>
<path d="M0.000106812 233.333H55.5557L55.5557 -7.62939e-05H0.000106812L0.000106812 233.333Z" fill="url(#paint2_linear_427_6964)" fill-opacity="0.5"/>
<path fill-rule="evenodd" clip-rule="evenodd" d="M475 138.889H525V188.889H575V238.889H525V288.889V338.889H575V388.889H525V438.889V488.889H575V538.889H525V588.889H475V538.889H425V488.889H475V438.889V388.889H425V338.889H475V288.889V238.889H425V188.889H475V138.889ZM425 238.889V288.889V338.889H375V288.889V238.889H425ZM425 488.889H375V438.889H425V488.889ZM575 488.889V438.889V388.889H625V438.889V488.889H575ZM575 238.889V288.889H625V238.889H575Z" fill="url(#paint3_linear_427_6964)"/>
</g>
<defs>
<linearGradient id="paint0_linear_427_6964" x1="993.056" y1="-83.5119" x2="249.992" y2="948.881" gradientUnits="userSpaceOnUse">
<stop stop-color="#24F2FF"/>
<stop offset="1" stop-color="#00E053"/>
</linearGradient>
<linearGradient id="paint1_linear_427_6964" x1="972.222" y1="722.222" x2="972.222" y2="495.619" gradientUnits="userSpaceOnUse">
<stop stop-color="white"/>
<stop offset="1" stop-color="white" stop-opacity="0"/>
</linearGradient>
<linearGradient id="paint2_linear_427_6964" x1="27.7779" y1="-7.62939e-05" x2="27.7779" y2="226.602" gradientUnits="userSpaceOnUse">
<stop stop-color="white"/>
<stop offset="1" stop-color="white" stop-opacity="0"/>
</linearGradient>
<linearGradient id="paint3_linear_427_6964" x1="683.75" y1="90.1389" x2="297.5" y2="726.389" gradientUnits="userSpaceOnUse">
<stop stop-color="#24F2FF"/>
<stop offset="1" stop-color="#00E053"/>
</linearGradient>
<clipPath id="clip0_427_6964">
<rect width="1000" height="1000" fill="white"/>
</clipPath>
</defs>
</svg>
