<svg width="24" height="24" viewBox="0 0 24 24" fill="none" xmlns="http://www.w3.org/2000/svg">
<circle cx="12" cy="12" r="12" fill="#515468"/>
<path d="M12.9998 18H10.9999V16.0075H12.9998V18ZM12.9998 15.0113H10.9999C10.9683 13.7138 11.646 12.5015 12.7698 11.8452C13.4298 11.3411 13.9998 10.9067 13.9998 10.0301C13.9998 8.92964 13.1044 8.03757 11.9999 8.03757C10.8953 8.03757 9.99994 8.92964 9.99994 10.0301H8V9.94039C8.01608 8.5167 8.7933 7.2097 10.0389 6.51172C11.2845 5.81375 12.8093 5.83084 14.0388 6.55655C15.2683 7.28227 16.0158 8.60636 15.9997 10.0301C15.9281 11.105 15.3494 12.0826 14.4398 12.6651C13.6175 13.1794 13.0846 14.0477 12.9998 15.0113Z" fill="#82859D"/>
</svg>
